<?xml version="1.0" encoding="iso-8859-1"?>
<!-- Generator: Adobe Illustrator 19.0.0, SVG Export Plug-In . SVG Version: 6.00 Build 0)  -->
<svg version="1.1" id="Capa_1" xmlns="http://www.w3.org/2000/svg" xmlns:xlink="http://www.w3.org/1999/xlink" x="0px" y="0px"
	 viewBox="0 0 512 512" style="enable-background:new 0 0 512 512;" xml:space="preserve">
<g>
	<g>
		<path d="M256,0c-81.332,0-147.5,66.168-147.5,147.5v20c0,81.332,66.168,147.5,147.5,147.5s147.5-66.168,147.5-147.5v-20
			C403.5,66.168,337.332,0,256,0z M388.5,167.5c0,73.061-59.439,132.5-132.5,132.5s-132.5-59.439-132.5-132.5v-20
			C123.5,74.439,182.939,15,256,15s132.5,59.439,132.5,132.5V167.5z"/>
	</g>
</g>
<g>
	<g>
		<path d="M206,120c-4.143,0-7.5,3.357-7.5,7.5v30c0,4.143,3.357,7.5,7.5,7.5s7.5-3.357,7.5-7.5v-30
			C213.5,123.357,210.143,120,206,120z"/>
	</g>
</g>
<g>
	<g>
		<path d="M306,120c-4.143,0-7.5,3.357-7.5,7.5v30c0,4.143,3.357,7.5,7.5,7.5s7.5-3.357,7.5-7.5v-30
			C313.5,123.357,310.143,120,306,120z"/>
	</g>
</g>
<g>
	<g>
		<path d="M286.786,190.429c-3.905-1.379-8.19,0.666-9.571,4.571c-3.172,8.972-11.697,15-21.215,15s-18.043-6.028-21.215-15
			c-1.381-3.906-5.667-5.952-9.571-4.571c-3.905,1.381-5.952,5.666-4.571,9.571c5.287,14.953,19.496,25,35.357,25
			c15.861,0,30.07-10.047,35.357-25C292.738,196.095,290.691,191.81,286.786,190.429z"/>
	</g>
</g>
<g>
	<g>
		<path d="M485.194,503.242C472.246,427.12,422.49,362.607,352.099,330.67c-0.974-0.441-2.029-0.67-3.099-0.67H163
			c-1.069,0-2.125,0.229-3.099,0.67C89.509,362.608,39.753,427.121,26.806,503.242c-0.371,2.178,0.238,4.408,1.663,6.096
			c1.425,1.688,3.521,2.662,5.73,2.662h443.602c2.209,0,4.306-0.974,5.73-2.662C484.956,507.65,485.565,505.42,485.194,503.242z
			 M330.874,345L256,419.764L181.126,345H330.874z M341.5,497h-171v-22.5c0-4.143-3.357-7.5-7.5-7.5s-7.5,3.357-7.5,7.5V497H43.268
			C56.763,433.464,97.912,379.482,155.5,349.512V444.5c0,4.143,3.357,7.5,7.5,7.5s7.5-3.357,7.5-7.5v-88.911l80.2,80.081
			c1.465,1.462,3.382,2.192,5.3,2.192c1.918,0,3.835-0.73,5.3-2.192l80.2-80.081V497z M356.5,497V349.512
			c57.587,29.969,98.737,83.951,112.232,147.488H356.5z"/>
	</g>
</g>
<g>
</g>
<g>
</g>
<g>
</g>
<g>
</g>
<g>
</g>
<g>
</g>
<g>
</g>
<g>
</g>
<g>
</g>
<g>
</g>
<g>
</g>
<g>
</g>
<g>
</g>
<g>
</g>
<g>
</g>
</svg>
